{"title":"Million Dollar Listing New York s03e09 720p HDTV x264-YesTV","uid":10270593,"size":1122803074,"categoryP":"video","categoryS":"hd___tv_shows","magnet":"?xt=urn:btih:b95354a49c8b55c21d5600040d58989a906bef58&amp;dn=Million+Dollar+Listing+New+York+s03e09+720p+HDTV+x264-YesTV&amp;tr=udp%3A%2F%2Ftracker.openbittorrent.com%3A80&amp;tr=udp%3A%2F%2Fopen.demonii.com%3A1337&amp;tr=udp%3A%2F%2Ftracker.coppersurfer.tk%3A6969&amp;tr=udp%3A%2F%2Fexodus.desync.com%3A6969","seeders":1,"leechers":0,"uploader":"President_Kush","files":1,"time":1401576000,"description":"Video\n ID : 1\n Format : AVC\n Format/Info : Advanced Video Codec\n Format profile : &lt;a class=&quot;__cf_email__&quot; href=&quot;/cdn-cgi/l/email-protection&quot; data-cfemail=&quot;470f2e202f070b736976&quot;&gt;[email&amp;#160;protected]&lt;/a&gt;&lt;script cf-hash='f9e31' type=&quot;text/javascript&quot;&gt;\n/* &lt;![CDATA[ */!function(){try{var t=&quot;currentScript&quot;in document?document.currentScript:function(){for(var t=document.getElementsByTagName(&quot;script&quot;),e=t.length;e--;)if(t[e].getAttribute(&quot;cf-hash&quot;))return t[e]}();if(t&amp;&amp;t.previousSibling){var e,r,n,i,c=t.previousSibling,a=c.getAttribute(&quot;data-cfemail&quot;);if(a){for(e=&quot;&quot;,r=parseInt(a.substr(0,2),16),n=2;a.length-n;n+=2)i=parseInt(a.substr(n,2),16)^r,e+=String.fromCharCode(i);e=document.createTextNode(e),c.parentNode.replaceChild(e,c)}}}catch(u){}}();/* ]]&gt; */&lt;/script&gt;\n Format settings, CABAC : Yes\n Format settings, ReFrames : 5 frames\n Codec ID : V_MPEG4/ISO/AVC\n Duration : 42mn 56s\n Bit rate : 3 033 Kbps\n Width : 1 280 pixels\n Height : 720 pixels\n Display aspect ratio : 16:9\n Frame rate mode : Constant\n Frame rate : 23.976 fps\n Color space : YUV\n Chroma subsampling : 4:2:0\n Bit depth : 8 bits\n Scan type : Progressive\n Bits/(Pixel*Frame) : 0.137\n Stream size : 932 MiB (87%)\n Writing library : x264 core 142 r2431 ac76440\n Encoding settings : cabac=1 / ref=5 / deblock=1:0:0 / analyse=0x3:0x113 / me=umh / subme=8 / psy=1 / psy_rd=1.00:0.00 / mixed_ref=1 / me_range=16 / chroma_me=1 / trellis=1 / 8x8dct=1 / cqm=0 / deadzone=21,11 / fast_pskip=1 / chroma_qp_offset=-2 / threads=9 / lookahead_threads=1 / sliced_threads=0 / nr=0 / decimate=1 / interlaced=0 / bluray_compat=0 / constrained_intra=0 / bframes=3 / b_pyramid=2 / b_adapt=2 / b_bias=0 / direct=3 / weightb=1 / open_gop=0 / weightp=2 / keyint=240 / keyint_min=24 / scenecut=40 / intra_refresh=0 / rc_lookahead=50 / rc=crf / mbtree=1 / crf=21.0 / qcomp=0.60 / qpmin=0 / qpmax=69 / qpstep=4 / ip_ratio=1.40 / aq=1:1.00\n Default : Yes\n Forced : No\n Matrix coefficients : BT.709\n\n Audio\n ID : 2\n Format : AC-3\n Format/Info : Audio Coding 3\n Mode extension : CM (complete main)\n Format settings, Endianness : Big\n Codec ID : A_AC3\n Duration : 42mn 56s\n Bit rate mode : Constant\n Bit rate : 384 Kbps\n Channel(s) : 6 channels\n Channel positions : Front: L C R, Side: L R, LFE\n Sampling rate : 48.0 KHz\n Bit depth : 16 bits\n Compression mode : Lossy\n Stream size : 118 MiB (11%)\n Language : English\n Default : Yes\n Forced : No","torrent":{"xt":"urn:btih:b95354a49c8b55c21d5600040d58989a906bef58","amp;dn":"Million+Dollar+Listing+New+York+s03e09+720p+HDTV+x264-YesTV","amp;tr":["udp%3A%2F%2Ftracker.openbittorrent.com%3A80","udp%3A%2F%2Fopen.demonii.com%3A1337","udp%3A%2F%2Ftracker.coppersurfer.tk%3A6969","udp%3A%2F%2Fexodus.desync.com%3A6969"],"infoHash":"b95354a49c8b55c21d5600040d58989a906bef58","infoHashBuffer":{"type":"Buffer","data":[185,83,84,164,156,139,85,194,29,86,0,4,13,88,152,154,144,107,239,88]},"announce":[],"urlList":[]}}